<?xml version="1.0" standalone="no"?>
<!DOCTYPE svg PUBLIC "-//W3C//DTD SVG 20010904//EN"
 "http://www.w3.org/TR/2001/REC-SVG-20010904/DTD/svg10.dtd">
<svg version="1.0" xmlns="http://www.w3.org/2000/svg"
 width="1225.000000pt" height="1225.000000pt" viewBox="0 0 1225.000000 1225.000000"
 preserveAspectRatio="xMidYMid meet">
<metadata>
Created by potrace 1.11, written by Peter Selinger 2001-2013
</metadata>
<g transform="translate(0.000000,1225.000000) scale(0.100000,-0.100000)"
fill="#000000" stroke="none">
<path d="M4055 10892 c-2 -2 -41 -6 -87 -8 -78 -4 -107 -7 -168 -17 -14 -3
-50 -8 -80 -12 -63 -8 -65 -9 -57 -29 5 -12 16 -14 44 -10 21 3 52 7 68 9 17
2 30 4 30 5 0 1 16 3 35 5 202 24 578 24 700 0 14 -3 41 -8 60 -11 78 -14 107
-22 164 -40 108 -35 298 -128 421 -206 22 -14 45 -27 50 -28 6 -2 16 -10 23
-17 7 -7 19 -13 27 -13 7 0 15 -4 17 -8 4 -11 97 -72 109 -72 5 0 9 -4 9 -10
0 -5 7 -10 15 -10 8 0 15 -3 15 -7 1 -5 25 -24 55 -43 30 -19 55 -38 55 -42 0
-5 4 -8 10 -8 11 0 173 -120 178 -132 2 -4 8 -8 13 -8 8 0 17 -6 71 -52 12
-10 24 -18 28 -18 4 0 20 -12 37 -27 45 -42 95 -83 99 -83 3 0 20 -14 40 -32
l35 -32 -50 -23 c-71 -30 -193 -162 -183 -195 1 -5 -2 -8 -7 -8 -5 0 -12 -10
-16 -22 -4 -13 -8 -25 -10 -28 -4 -9 -15 -40 -21 -57 -7 -23 -18 -108 -18
-155 -1 -21 -3 -38 -6 -38 -12 0 3 -188 20 -250 7 -25 13 -49 15 -55 1 -5 5
-19 9 -30 5 -11 13 -33 19 -50 20 -55 90 -150 135 -185 25 -19 48 -35 51 -36
3 0 20 -6 36 -13 50 -21 153 -9 205 24 51 32 65 45 111 105 37 47 74 125 89
185 1 6 8 28 15 50 6 22 11 53 11 68 -1 15 1 27 5 27 3 0 5 53 4 118 -1 64 -3
117 -4 117 -2 0 -7 22 -15 75 -7 44 -37 123 -67 178 -65 117 -152 189 -236
194 -27 2 -25 4 122 120 44 35 82 66 83 70 2 5 10 8 17 8 7 0 15 4 17 8 5 12
206 162 217 162 5 0 11 4 13 8 4 12 146 112 157 112 5 0 11 3 13 8 3 7 103 74
183 122 22 13 42 28 43 32 2 4 10 8 17 8 8 0 20 6 27 13 7 6 45 28 83 47 39
19 72 38 75 41 7 8 44 22 53 21 4 -1 7 2 7 6 0 5 6 9 13 9 19 1 121 47 129 58
4 6 8 7 8 3 0 -3 20 0 45 8 42 12 116 27 198 40 18 3 58 7 89 9 31 1 60 5 65
8 4 3 98 3 208 2 187 -3 267 -8 340 -20 36 -6 122 -17 149 -19 11 0 21 4 23
10 6 18 -16 24 -132 39 -16 2 -30 4 -30 5 0 2 -62 8 -165 16 -132 9 -320 11
-320 2 0 -4 -11 -3 -24 2 -13 5 -26 7 -28 5 -2 -3 -31 -7 -64 -10 -32 -3 -88
-11 -124 -16 -36 -6 -81 -13 -100 -15 -19 -3 -37 -8 -40 -12 -3 -4 -14 -8 -25
-9 -21 -2 -60 -10 -60 -13 0 -1 -7 -3 -15 -5 -9 -1 -36 -12 -61 -23 -24 -11
-57 -24 -71 -27 -15 -4 -32 -13 -39 -21 -6 -8 -19 -14 -29 -14 -10 0 -23 -7
-30 -15 -7 -8 -16 -12 -21 -9 -5 3 -9 1 -9 -5 0 -5 -9 -13 -20 -16 -32 -10
-241 -135 -277 -165 -7 -5 -14 -10 -17 -10 -5 0 -80 -51 -213 -143 -40 -28
-73 -54 -73 -59 0 -4 -6 -8 -13 -8 -7 0 -22 -8 -33 -17 -10 -10 -46 -38 -79
-63 -33 -25 -62 -47 -65 -50 -3 -3 -21 -17 -40 -30 -34 -24 -61 -45 -84 -65
-6 -6 -31 -26 -56 -45 -25 -19 -54 -43 -64 -52 -11 -10 -23 -18 -26 -18 -5 0
-63 46 -106 85 -6 5 -22 17 -34 25 -12 8 -32 23 -43 33 -12 10 -35 28 -51 40
-16 12 -37 30 -47 40 -11 9 -23 17 -28 17 -5 0 -11 3 -13 8 -5 12 -86 72 -97
72 -5 0 -11 4 -13 8 -1 5 -46 39 -98 76 -52 37 -106 76 -120 87 -13 10 -28 19
-33 19 -5 0 -15 6 -22 13 -21 18 -38 31 -61 43 -10 6 -30 17 -44 25 -14 8 -27
17 -30 20 -6 7 -78 49 -145 85 -27 15 -51 30 -53 35 -2 5 -11 9 -20 9 -9 0
-28 9 -42 20 -14 11 -33 20 -42 20 -10 0 -18 5 -18 11 0 5 -4 7 -10 4 -5 -3
-10 -1 -10 6 0 7 -3 10 -6 7 -3 -4 -29 4 -57 17 -65 28 -88 37 -107 40 -8 2
-30 8 -47 13 -18 6 -33 9 -33 6 0 -3 -8 -1 -17 4 -10 6 -40 12 -68 16 -27 3
-61 8 -75 11 -66 13 -454 28 -465 17z"/>
<path d="M3581 8747 c19 -18 42 -36 50 -40 18 -9 53 -30 59 -38 24 -26 272
-149 333 -164 15 -4 27 -11 27 -16 0 -5 3 -8 8 -7 7 2 86 -18 112 -29 8 -3 20
-7 25 -8 6 -2 30 -8 55 -15 25 -7 55 -14 68 -16 12 -2 32 -6 45 -9 12 -2 40
-7 62 -10 22 -3 52 -8 66 -11 49 -10 155 -15 294 -16 181 0 254 6 405 32 30 5
69 12 85 15 17 2 75 16 130 30 55 15 107 28 115 29 8 2 22 6 30 9 41 17 215
75 218 73 1 -2 -25 -17 -57 -35 -33 -17 -63 -36 -66 -42 -4 -5 -10 -7 -14 -5
-4 3 -17 -4 -29 -14 -12 -11 -23 -20 -26 -20 -3 0 -39 -20 -81 -45 -41 -24
-75 -41 -75 -38 0 3 -9 -4 -20 -17 -11 -13 -20 -20 -20 -16 0 3 -36 -16 -81
-44 -44 -27 -85 -50 -90 -50 -5 0 -9 -4 -9 -10 0 -5 -7 -10 -15 -10 -8 0 -15
-5 -15 -12 0 -6 -3 -9 -6 -5 -3 3 -11 1 -18 -4 -21 -18 -118 -79 -126 -79 -4
0 -13 -6 -19 -13 -6 -8 -31 -24 -56 -37 -25 -13 -45 -27 -45 -32 0 -4 -5 -8
-10 -8 -12 0 -223 -141 -228 -152 -2 -5 -8 -8 -13 -8 -8 0 -105 -65 -119 -80
-3 -3 -25 -19 -50 -35 -24 -17 -52 -37 -61 -45 -10 -8 -39 -31 -66 -50 -26
-19 -50 -37 -53 -40 -3 -3 -25 -21 -50 -40 -25 -19 -50 -39 -56 -45 -6 -5 -31
-26 -54 -45 -128 -104 -285 -263 -360 -365 -25 -33 -49 -63 -55 -67 -5 -4 -6
-8 -2 -8 5 0 0 -12 -11 -27 -11 -16 -20 -30 -20 -33 -1 -3 -9 -23 -18 -45 -22
-52 -28 -119 -14 -161 10 -28 198 -234 214 -234 6 0 14 -6 74 -57 15 -13 33
-23 40 -23 6 0 12 -3 12 -7 0 -5 24 -19 53 -33 28 -14 55 -29 59 -35 4 -5 10
-6 14 -2 4 4 12 3 18 -2 20 -17 127 -43 187 -46 33 -2 63 -6 66 -9 3 -3 13 -1
23 4 10 5 20 7 22 4 8 -7 152 24 201 44 16 7 33 12 38 12 5 0 9 5 9 11 0 5 4
8 9 4 5 -3 17 2 25 11 9 8 16 13 16 9 0 -3 13 3 29 14 16 12 32 21 35 21 4 0
12 4 19 10 7 5 46 36 87 69 108 84 200 177 295 296 22 28 43 52 48 53 4 2 7
10 7 17 0 7 3 15 8 17 9 4 62 74 62 82 0 3 7 14 16 24 20 21 122 180 155 242
13 25 27 47 30 50 4 3 26 43 50 90 24 47 46 87 49 90 3 3 17 30 32 60 l27 55
-2 -97 c-1 -54 -4 -98 -7 -98 -3 0 -4 -111 -4 -247 1 -137 2 -248 3 -248 1 0
4 -43 6 -95 4 -97 11 -181 20 -260 3 -25 8 -61 10 -80 2 -19 7 -55 10 -80 4
-25 8 -56 10 -70 2 -14 6 -37 9 -52 3 -16 8 -38 10 -50 2 -13 9 -42 14 -65 5
-24 7 -43 4 -43 -3 0 -1 -5 5 -11 6 -6 9 -18 6 -25 -3 -8 0 -14 6 -14 6 0 8
-7 5 -15 -4 -8 -1 -22 6 -30 7 -8 10 -15 6 -15 -3 0 -1 -12 5 -27 6 -16 13
-37 15 -49 5 -29 62 -164 75 -181 6 -7 8 -13 5 -13 -4 0 11 -26 33 -57 57 -81
67 -93 80 -93 6 0 11 -4 11 -9 0 -12 56 -31 91 -31 101 0 206 135 284 365 14
44 28 89 31 100 13 66 17 81 24 90 4 6 7 17 7 25 1 14 3 27 18 100 7 39 15 82
20 120 3 19 8 51 12 70 3 19 7 55 9 80 1 25 3 45 4 45 4 0 18 162 25 283 2 35
5 66 8 69 3 2 1 18 -3 34 -5 16 -5 29 -1 29 4 0 6 15 4 33 -2 17 -4 37 -3 42
5 154 4 255 -4 255 -6 0 -5 5 1 11 8 8 8 20 2 36 -6 18 -6 22 3 17 7 -4 8 -3
4 5 -4 6 -9 53 -11 104 -3 51 -7 115 -9 142 l-6 50 38 -75 c20 -41 39 -77 42
-80 3 -3 19 -31 35 -63 50 -97 57 -110 83 -152 14 -22 24 -42 23 -44 -2 -2 1
-7 6 -10 4 -3 13 -15 20 -26 53 -91 129 -205 135 -205 5 0 8 -6 8 -13 0 -7 11
-24 25 -39 14 -15 25 -30 25 -33 0 -3 6 -13 13 -21 6 -8 17 -20 22 -27 6 -7
28 -34 50 -62 70 -88 283 -295 304 -295 5 0 11 -4 13 -8 11 -26 163 -110 259
-142 82 -28 91 -30 170 -35 37 -2 71 -5 75 -6 5 -1 11 -1 14 0 3 2 24 4 47 6
40 4 143 31 173 45 8 4 29 14 45 21 17 7 60 32 97 55 36 24 69 40 72 37 3 -4
6 0 6 8 0 8 11 21 24 29 47 29 216 200 216 219 0 6 4 11 8 11 4 0 8 8 9 18 1
9 4 29 7 44 2 15 0 42 -6 60 -6 18 -13 40 -16 48 -3 8 -6 20 -7 25 -3 14 -84
145 -98 160 -7 6 -23 27 -37 46 -27 36 -246 259 -255 259 -3 0 -19 12 -35 28
-76 71 -100 92 -105 92 -6 0 -39 27 -71 58 -13 12 -26 22 -28 22 -8 0 -169
122 -178 135 -5 7 -8 7 -8 0 0 -5 -4 -5 -8 2 -4 6 -39 33 -77 59 -39 26 -72
50 -75 53 -3 3 -17 12 -32 20 -16 8 -28 18 -28 23 0 4 -5 8 -10 8 -12 0 -73
41 -78 53 -2 4 -10 7 -18 7 -8 0 -14 5 -14 10 0 6 -6 10 -14 10 -8 0 -21 6
-28 13 -7 7 -76 52 -153 100 -77 48 -144 90 -150 95 -20 16 -110 66 -114 63
-2 -1 -7 1 -10 6 -3 6 -40 29 -81 54 -41 24 -77 47 -78 51 -2 5 -8 6 -13 2 -5
-3 -9 -1 -9 5 0 5 9 9 20 8 11 -1 20 -4 20 -7 0 -3 10 -7 23 -8 36 -5 62 -9
62 -11 0 -1 11 -4 25 -6 14 -2 43 -6 65 -10 54 -8 108 -14 182 -19 34 -2 66
-7 72 -11 6 -3 11 -3 11 2 0 9 77 9 86 0 3 -3 17 -2 30 3 16 6 24 6 24 -1 0
-6 4 -8 9 -4 5 3 45 7 88 10 72 5 95 7 193 21 57 9 99 16 160 29 60 13 71 15
90 20 29 7 63 16 75 19 6 1 64 20 130 41 66 21 122 39 125 40 3 0 14 6 25 12
11 6 22 11 25 11 3 0 18 5 33 11 16 6 33 11 38 11 5 0 9 4 9 8 0 5 6 9 14 9 7
0 71 27 140 61 69 34 131 62 136 62 6 0 10 5 10 11 0 7 -10 9 -25 7 -14 -3
-25 -1 -25 5 0 5 -6 5 -13 -2 -8 -6 -16 -8 -19 -5 -3 3 -196 7 -429 10 -233 3
-478 7 -544 8 -66 0 -126 5 -132 9 -7 5 -13 4 -13 0 0 -10 -180 -10 -196 0 -6
3 -14 3 -18 0 -10 -10 -46 -11 -46 -1 0 5 -9 4 -20 -2 -14 -8 -20 -8 -20 0 0
7 -6 8 -19 0 -14 -7 -22 -7 -26 0 -5 8 -11 8 -19 1 -7 -6 -16 -8 -19 -4 -4 3
-132 7 -284 9 -571 5 -638 7 -651 17 -7 6 -35 7 -70 3 -60 -8 -442 -9 -479 -2
-13 3 -25 0 -28 -5 -4 -5 -11 -6 -17 -3 -6 4 -124 8 -262 10 -138 2 -411 6
-606 9 -195 2 -537 7 -760 10 l-405 6 36 -34z"/>
<path d="M3644 4091 c-2 -3 -12 -6 -22 -8 -65 -9 -137 -68 -162 -130 -7 -20
-11 -57 -8 -92 5 -69 37 -120 96 -150 28 -14 156 -58 192 -66 79 -17 126 -71
117 -136 -18 -135 -237 -154 -294 -25 -17 40 -20 41 -65 41 -26 0 -49 -4 -52
-10 -12 -32 61 -159 93 -160 3 -1 17 -7 31 -15 35 -20 45 -22 132 -25 64 -3
85 1 129 22 30 13 61 32 70 41 81 88 85 207 7 285 -28 28 -87 61 -110 62 -3 0
-10 3 -14 8 -4 4 -18 7 -30 7 -13 0 -26 5 -29 10 -4 6 -10 8 -15 5 -5 -3 -21
0 -37 7 -15 6 -31 11 -34 10 -4 -1 -23 13 -44 31 -65 56 -54 145 24 186 31 17
120 17 151 1 27 -14 60 -48 60 -61 0 -28 49 -40 122 -30 10 1 -8 59 -28 90
-31 47 -87 84 -147 96 -9 2 -22 7 -29 11 -7 5 -8 3 -3 -6 6 -9 4 -11 -5 -5
-14 9 -88 14 -96 6z"/>
<path d="M4977 4094 c-2 -2 -21 -6 -42 -10 -22 -3 -57 -15 -77 -25 -21 -11
-38 -17 -38 -14 0 19 -107 -92 -136 -140 -56 -96 -65 -252 -22 -360 17 -42 68
-116 97 -140 28 -23 101 -67 116 -69 5 -1 16 -5 23 -10 8 -4 48 -10 90 -12
171 -8 312 68 366 198 l15 35 -62 -4 c-36 -3 -64 -9 -66 -16 -9 -27 -99 -103
-136 -114 -51 -15 -172 -9 -211 11 -56 28 -130 114 -140 161 -1 6 -6 26 -10
45 -12 60 -2 184 17 195 5 4 7 9 5 13 -9 15 52 88 98 120 27 18 51 30 54 27 3
-3 11 0 18 6 11 9 107 14 144 6 45 -9 110 -52 139 -93 32 -44 34 -45 84 -43
29 1 55 4 59 6 16 9 -56 111 -108 153 -26 21 -113 58 -154 65 -18 3 -37 8 -41
11 -4 2 -10 0 -14 -6 -4 -6 -12 -7 -18 -3 -12 7 -45 12 -50 7z"/>
<path d="M6426 4092 c-3 -2 -20 -6 -38 -7 -106 -11 -219 -90 -271 -189 -12
-23 -22 -44 -23 -48 -1 -5 -2 -9 -4 -10 -27 -35 -17 -264 13 -294 4 -4 7 -14
7 -22 0 -16 52 -86 90 -120 14 -12 54 -37 90 -55 57 -28 75 -32 155 -33 49 -1
95 1 100 4 6 4 19 8 29 9 32 5 114 54 151 90 111 108 146 310 77 455 -31 63
-99 148 -119 148 -6 0 -13 3 -15 8 -3 8 -74 43 -98 49 -8 2 -33 5 -55 8 -22 2
-40 5 -40 5 0 4 -46 6 -49 2z m105 -97 c4 3 10 1 14 -5 3 -5 14 -10 23 -10 24
0 104 -72 124 -111 34 -71 38 -88 40 -169 1 -36 -4 -76 -11 -89 -8 -14 -9 -21
-2 -17 7 5 9 1 5 -8 -3 -9 -10 -16 -15 -16 -5 0 -9 -9 -9 -19 0 -26 -76 -102
-125 -125 -57 -28 -151 -32 -216 -11 -69 23 -137 92 -163 165 -18 51 -25 159
-13 200 2 8 8 30 12 48 4 17 11 32 16 32 5 0 9 6 9 13 0 17 67 81 107 101 42
21 131 34 167 24 16 -4 32 -5 37 -3z"/>
<path d="M2444 4080 c-19 -5 -19 -16 -19 -375 0 -203 3 -375 7 -381 4 -6 24
-8 50 -5 l43 6 1 377 0 376 -31 4 c-17 2 -40 1 -51 -2z"/>
<path d="M2699 4066 c-1 -12 -2 -184 -2 -383 l-2 -363 54 0 c41 0 52 3 48 14
-3 8 -3 17 1 20 8 8 10 46 3 46 -3 0 -6 11 -6 25 0 14 4 25 8 25 5 0 5 5 1 12
-10 16 -11 128 -1 128 4 0 3 8 -2 19 -6 10 -8 21 -4 24 8 8 7 112 -1 126 -4 6
-2 11 5 11 7 0 8 5 3 13 -11 14 -11 111 -1 115 4 1 7 0 7 -3 0 -3 8 -14 18
-24 28 -32 42 -50 42 -55 0 -9 84 -131 93 -134 4 -2 7 -8 7 -13 0 -6 20 -39
45 -75 25 -35 42 -64 39 -64 -3 0 1 -6 8 -13 7 -8 40 -55 73 -105 l60 -92 53
0 c50 0 52 1 53 28 1 15 0 32 -1 37 -5 18 0 148 5 153 3 3 0 11 -6 19 -9 10
-8 13 1 13 9 0 9 4 3 13 -10 12 -10 44 1 54 2 3 1 16 -4 29 -6 14 -6 26 0 29
7 4 7 13 0 24 -5 10 -7 20 -5 22 4 4 5 43 5 198 0 41 2 76 5 79 3 3 0 11 -6
19 -9 10 -8 13 1 13 9 0 10 3 1 13 -6 8 -9 16 -7 18 7 7 -78 4 -89 -3 -6 -4
-10 -116 -9 -297 0 -160 -1 -291 -3 -291 -1 0 -40 57 -86 128 -46 70 -92 140
-103 156 -10 16 -24 36 -29 45 -10 15 -166 252 -171 260 -2 2 -26 4 -53 5 -45
2 -51 0 -52 -18z"/>
<path d="M4118 4079 c-5 -3 -9 -42 -8 -85 1 -43 1 -83 0 -89 -2 -28 1 -579 4
-582 7 -7 397 -5 403 1 4 4 7 20 8 37 1 21 -4 33 -16 37 -10 4 -80 7 -157 6
l-139 -1 0 129 c0 123 1 128 21 129 12 0 74 1 139 1 l117 -1 0 43 0 43 -137
-1 -138 -1 -1 128 -2 127 154 0 c116 0 154 3 155 13 0 6 2 24 3 40 1 15 -3 27
-9 28 -46 4 -389 3 -397 -2z"/>
<path d="M5480 4082 c-6 -2 -10 -21 -10 -43 l0 -39 104 0 103 0 -1 -82 c-1
-46 2 -89 7 -95 5 -7 6 -13 1 -13 -11 0 -11 -131 0 -148 4 -7 4 -12 -1 -12
-10 0 -9 -132 1 -148 4 -7 4 -12 -1 -12 -4 0 -8 -37 -8 -83 l1 -82 53 0 53 0
0 333 c0 214 4 334 10 338 6 4 53 6 104 5 l94 -2 0 40 c0 32 -4 41 -17 42 -66
3 -485 3 -493 1z"/>
<path d="M6988 4082 c-15 -3 -33 -52 -19 -52 3 0 5 -160 3 -355 l-2 -355 50 0
c27 0 50 3 51 8 0 4 0 75 1 159 l1 151 102 0 c108 1 187 15 206 38 6 8 17 14
23 14 6 0 22 17 36 38 14 20 27 39 30 42 4 4 6 19 12 95 2 25 -11 72 -28 106
-14 27 -84 89 -107 93 -6 2 -28 6 -48 10 -36 8 -281 14 -311 8z m324 -102 c78
-37 86 -171 14 -232 -11 -9 -27 -15 -33 -13 -7 2 -13 1 -13 -3 0 -5 -47 -9
-104 -10 l-104 -2 0 133 c0 72 2 135 5 139 7 13 206 2 235 -12z"/>
<path d="M7603 4076 c-7 -11 -8 -744 -1 -751 4 -4 343 -9 396 -6 7 1 12 17 12
44 l0 42 -142 -2 c-169 -2 -182 1 -168 28 7 12 7 26 2 37 -5 9 -6 25 -3 36 4
10 4 41 1 68 -4 27 -3 51 1 54 5 2 6 11 2 19 -6 17 -3 17 166 16 63 0 111 2
107 6 -3 3 -1 12 5 20 7 8 7 13 2 13 -6 0 -10 10 -9 23 1 22 0 22 -136 22
l-137 0 0 128 0 127 154 0 155 0 0 43 0 42 -201 0 c-110 0 -203 -4 -206 -9z"/>
<path d="M8171 4070 c-9 -19 -7 -737 2 -746 9 -10 352 -4 352 6 0 1 11 4 24 6
24 4 38 11 105 47 37 20 92 81 116 127 57 112 50 301 -16 407 -28 43 -93 100
-143 124 -72 34 -114 40 -295 42 -114 2 -139 -1 -145 -13z m220 -70 c70 -2
127 -14 174 -35 40 -18 94 -72 101 -101 3 -13 9 -24 13 -24 4 0 8 -6 9 -12 1
-7 5 -32 10 -55 16 -76 6 -160 -27 -227 -52 -104 -124 -138 -298 -142 -99 -2
-103 -1 -104 20 -1 25 -1 485 0 538 1 30 5 37 24 40 12 2 25 3 28 2 3 -2 34
-4 70 -4z"/>
<path d="M8939 4080 c-6 -24 -4 -739 2 -751 6 -11 19 -15 45 -13 20 2 39 6 43
10 11 11 7 754 -4 755 -52 3 -85 3 -86 -1z"/>
<path d="M9432 4068 c-6 -8 -13 -26 -16 -42 -3 -15 -9 -33 -15 -40 -5 -6 -12
-23 -15 -36 -3 -14 -40 -117 -81 -230 -42 -113 -86 -232 -97 -265 -11 -33 -25
-71 -31 -85 -19 -48 -18 -50 37 -50 51 0 52 1 66 38 8 20 15 39 15 42 1 3 7
18 13 33 7 16 12 32 12 37 0 13 38 21 75 17 17 -2 36 1 43 6 6 5 12 6 12 1 0
-5 45 -8 99 -8 55 1 104 -2 109 -5 6 -3 12 -17 13 -31 2 -14 7 -27 11 -30 4
-3 9 -16 11 -28 2 -12 6 -25 10 -28 4 -4 7 -16 7 -26 0 -13 8 -18 28 -19 34
-1 76 2 81 6 1 2 -7 32 -19 67 -12 35 -23 68 -24 73 -2 6 -7 21 -13 35 -13 29
-46 120 -49 135 -5 21 -65 181 -75 197 -5 10 -9 22 -9 27 0 5 -5 22 -12 38 -6
15 -12 31 -13 36 -2 4 -3 8 -4 10 -1 1 -12 31 -24 67 l-22 65 -56 3 c-38 2
-59 -1 -67 -10z m83 -176 c4 -20 78 -226 99 -276 13 -30 13 -35 -1 -40 -8 -3
-19 -4 -23 -1 -5 3 -11 1 -15 -4 -3 -6 -15 -7 -28 -2 -23 8 -99 6 -123 -3 -8
-3 -14 -1 -14 4 0 5 -9 7 -20 5 -11 -2 -22 0 -24 4 -5 8 12 62 30 96 6 11 9
26 7 33 -3 6 0 12 6 12 6 0 11 8 11 18 0 10 3 22 7 26 4 3 8 15 10 25 1 10 8
31 14 47 7 16 13 31 13 34 1 3 8 20 15 38 12 28 16 31 23 18 5 -9 11 -24 13
-34z"/>
</g>
</svg>
